<svg xmlns="http://www.w3.org/2000/svg" xmlns:xlink="http://www.w3.org/1999/xlink" viewBox="0 0 1523.5 3097.32"><defs><style>.cls-1{fill:url(#linear-gradient);}.cls-2{fill:none;stroke:#999;stroke-miterlimit:10;stroke-width:2px;}.cls-3{fill:#333;}.cls-4{fill:#1a1a1a;}.cls-5,.cls-6,.cls-9{opacity:0.5;}.cls-5{fill:url(#linear-gradient-2);}.cls-7{fill:url(#linear-gradient-3);}.cls-8{fill:url(#linear-gradient-4);}.cls-9{fill:url(#linear-gradient-5);}.cls-10{fill:url(#linear-gradient-6);}.cls-11{fill:url(#linear-gradient-7);}</style><linearGradient id="linear-gradient" x1="761.75" y1="-403.59" x2="761.75" y2="3628.12" gradientUnits="userSpaceOnUse"><stop offset="0" stop-color="#d1d3d0"/><stop offset="0.49" stop-color="#eaeaea"/><stop offset="1" stop-color="#d1d3d0"/></linearGradient><linearGradient id="linear-gradient-2" x1="178.15" y1="808.52" x2="178.15" y2="378.5" gradientUnits="userSpaceOnUse"><stop offset="0" stop-color="#eaeaea"/><stop offset="0.5" stop-color="#f5f5f5"/><stop offset="1" stop-color="#e8e8e8"/></linearGradient><linearGradient id="linear-gradient-3" x1="699.02" y1="712.87" x2="699.02" y2="168.16" xlink:href="#linear-gradient-2"/><linearGradient id="linear-gradient-4" x1="702.35" y1="712.87" x2="702.35" y2="168.16" gradientTransform="matrix(-1, 0, 0, 1, 1526.82, 0)" xlink:href="#linear-gradient-2"/><linearGradient id="linear-gradient-5" x1="1345.35" y1="808.52" x2="1345.35" y2="378.5" xlink:href="#linear-gradient-2"/><linearGradient id="linear-gradient-6" x1="2813.09" y1="2607.42" x2="2813.09" y2="2177.4" gradientTransform="translate(-652.69 -510.39) rotate(17.36)" xlink:href="#linear-gradient-2"/><linearGradient id="linear-gradient-7" x1="1895.43" y1="2894.28" x2="1895.43" y2="2464.26" gradientTransform="matrix(-0.95, 0.3, 0.3, 0.95, 1214.74, -510.39)" xlink:href="#linear-gradient-2"/></defs><g id="Layer_2" data-name="Layer 2"><g id="car_copy" data-name="car copy"><path class="cls-1" d="M1397.46,1317.14v440.58c0,107,36.51,562.79,36.51,701.51s-81.13,479.56-117.64,562.79c-66.93,41.61-208.62,75.3-554.58,75.3s-487.66-33.69-554.59-75.3c-36.51-83.23-117.64-424.08-117.64-562.79S126,1864.73,126,1757.72V1317.14s-81.13,21.14-117,25.76c-9.47-25.1-18.93-69.36,12.84-89.17C45.55,1239,126,1214.39,126,1206.17V860c-28.4-37.65-36.51-118.9-36.51-241.76,0-141.87,31.17-252.68,82-338.72q6.66-11.25,13.74-21.95C253.48,154.57,351.33,90,455.76,51.25,558.73,13.06,668.08,0,761.75,0s203,13.06,306,51.25c103.37,38.34,200.3,102,268.44,203.25q8.21,12.18,15.83,25.1l0,0c50.79,86,81.94,196.82,81.94,338.66,0,122.86-8.11,204.11-36.51,241.76v346.13c0,8.22,80.49,32.82,104.12,47.56,31.78,19.81,22.31,64.07,12.85,89.17C1478.6,1338.28,1397.46,1317.14,1397.46,1317.14Z"/><g id="details_copy" data-name="details copy"><g id="hood_copy" data-name="hood copy"><path class="cls-2" d="M1256.64,1017.91V931.38c0-182.71-43.39-550-160.92-735.4a245.52,245.52,0,0,0-90.62-84.82A299.62,299.62,0,0,0,899,77.29L866.8,75.73a2240.35,2240.35,0,0,0-245,1.56h0a299.62,299.62,0,0,0-106.15,33.87A245.44,245.44,0,0,0,425,196C307.47,381.34,264.08,748.67,264.08,931.38v86.53"/></g><g id="lights_copy" data-name="lights copy"><path class="cls-3" d="M1352,279.62c-54,20.93-124.84-3.75-139.87-34.55-16-32.7-31.82-51.86-64.3-84.11-36-35.76-80.12-71.78-80.12-109.71,103.37,38.34,200.3,102,268.44,203.25A152.13,152.13,0,0,0,1352,279.6Z"/><path class="cls-3" d="M455.85,51.25c0,37.93-44.12,74-80.13,109.71-32.47,32.25-48.33,51.41-64.29,84.11-15,30.8-85.87,55.48-139.87,34.55l-.06-.06q6.66-11.25,13.74-21.95C253.48,154.57,351.33,90,455.76,51.25Z"/></g><g id="rearWindow_copy" data-name="rearWindow copy"><path class="cls-2" d="M1170,3070.79c0-109.21-14.45-303.42-69-376.41"/><path class="cls-2" d="M354.38,3070.79c0-109.21,14.45-303.42,68.95-376.41"/><path id="rearWindow" class="cls-3" d="M1075.37,2358.82H448.12c-36.33,0-73.32,35.67-66.71,85.88s35,216.66,40.95,249.68,85.6,157.87,339.39,157.87,333.44-124.84,339.38-157.87,34.35-199.48,41-249.68S1111.7,2358.82,1075.37,2358.82Z"/></g><g id="SideWindow"><path class="cls-3" d="M336.16,1974.72v.13q0,19.61-.46,40c-1.77,80.24-8.39,170.28-15.72,275.28-110.36-66-114.23-249.77-110.46-328.45.21-4.3.43-8.28.67-11.91q1.16-18,1.69-36.06.44-14.14.43-28.3V1238.53C327.24,1430.75,336.16,1884.55,336.16,1974.72Z"/><path class="cls-4" d="M336.16,1974.85q0,19.61-.46,40a213.8,213.8,0,0,1-52-9.64c-26.36-8.56-51.28-23.19-74.19-43.53.21-4.3.43-8.28.67-11.91q1.16-18,1.69-36.06a60.2,60.2,0,0,1,19.49,13.76C271.82,1965.57,310.36,1972.92,336.16,1974.85Z"/><path class="cls-2" d="M126,1166.53c43.14,13.21,74.39,46.24,86.28,72"/><path class="cls-2" d="M118.81,1919.1c27.88,1.56,53.49,19.57,91.91,21.89"/></g><g id="SideWindow-2" data-name="SideWindow"><path class="cls-3" d="M1187.44,1974.72v.13q0,19.61.46,40c1.77,80.24,8.39,170.28,15.72,275.28,110.36-66,114.23-249.77,110.46-328.45-.21-4.3-.43-8.28-.67-11.91q-1.15-18-1.69-36.06-.43-14.14-.43-28.3V1238.53C1196.36,1430.75,1187.44,1884.55,1187.44,1974.72Z"/><path class="cls-4" d="M1187.44,1974.85q0,19.61.46,40a213.8,213.8,0,0,0,52-9.64c26.36-8.56,51.28-23.19,74.19-43.53-.21-4.3-.43-8.28-.67-11.91q-1.15-18-1.69-36.06a60.2,60.2,0,0,0-19.49,13.76C1251.78,1965.57,1213.24,1972.92,1187.44,1974.85Z"/><path class="cls-2" d="M1397.57,1166.53c-43.14,13.21-74.39,46.24-86.28,72"/><path class="cls-2" d="M1404.79,1919.1c-27.89,1.56-53.5,19.57-91.91,21.89"/></g><path id="frontWindow" class="cls-3" d="M760.36,765.58c-453.13,0-508.14,196.84-494.49,276.11,0,0,35.5,183.63,46.43,228.55s51.88,108.33,109.23,108.33h677.65c57.35,0,98.32-63.41,109.24-108.33s46.42-228.55,46.42-228.55C1268.5,962.42,1213.49,765.58,760.36,765.58Z"/><path class="cls-5" d="M165.76,814.64l-2.58-14.91L160.7,784.8c-.2-1.25-.43-2.49-.61-3.74l-.47-3.76-.94-7.51-1.88-15-.88-7.52-.62-7.54-1.24-15.1-.6-7.55-.29-3.78-.16-3.78-.66-15.14-.65-15.14-.11-15.15-.11-15.15,0-3.79.09-3.78.17-7.58c.36-20.2,1.46-40.38,2.89-60.52a1050.28,1050.28,0,0,1,16-120.08c7.73-39.62,17.85-78.92,32.42-116.6a.93.93,0,0,1,1.21-.54,1,1,0,0,1,.56,1.15v0L200.3,351.6l-1.14,3.59-.57,1.79-.51,1.82-2,7.26c-1.31,4.85-2.72,9.67-3.94,14.54l-3.48,14.66-1.77,7.31c-.55,2.45-1,4.92-1.57,7.37l-3.09,14.74c-.52,2.45-1.05,4.91-1.47,7.38l-1.36,7.41-2.72,14.81c-.49,2.46-.83,5-1.23,7.43l-1.15,7.44L171.94,484c-1.4,9.94-2.65,19.9-4,29.85l-3.3,29.93c-.14,1.25-.29,2.49-.4,3.74l-.31,3.76-.62,7.5-1.24,15c-1.44,20-2.64,40.07-3.09,60.14l-.27,7.52-.13,3.77,0,3.76-.08,15-.07,15.06.33,15,.34,15.06.08,3.76.21,3.76.4,7.52.79,15,.4,7.52.65,7.51,1.26,15,.63,7.51.31,3.76c.13,1.25.3,2.49.45,3.74l1.86,15,1.75,15v.05a1.07,1.07,0,0,1-.94,1.19A1.08,1.08,0,0,1,165.76,814.64Z"/><g class="cls-6"><path class="cls-7" d="M692.83,720.62l-1.29-18.88-1.25-18.92c-.1-1.58-.21-3.15-.3-4.73l-.23-4.76-.47-9.51-.94-19-.45-9.53-.3-9.56L687,606.57l-.3-9.57-.15-4.78-.08-4.79-.33-19.17-.32-19.18-.06-19.19,0-19.19v-4.8l0-4.8.09-9.59c.17-25.59.73-51.15,1.44-76.67,1.56-51,4.14-101.86,8-152.1s8.93-100,16.21-147.7c.09-.61.36-.92.61-.68a2.06,2.06,0,0,1,.28,1.46v0l-2.24,18.23-.57,4.55-.29,2.27-.25,2.3-1,9.2c-.65,6.14-1.36,12.25-2,18.41l-1.74,18.57-.88,9.27c-.28,3.1-.52,6.22-.79,9.33l-1.54,18.67c-.27,3.11-.53,6.22-.74,9.35l-.68,9.39-1.36,18.75c-.24,3.12-.41,6.28-.61,9.42L697.1,283l-1.18,18.84c-.7,12.59-1.33,25.21-2,37.81l-1.65,37.91c-.07,1.58-.14,3.16-.2,4.74l-.15,4.76-.31,9.5-.63,19c-.72,25.36-1.31,50.75-1.54,76.17l-.13,9.53-.07,4.77v4.76l0,19.07,0,19.08.17,19.06.17,19.08,0,4.76.1,4.76.2,9.53.4,19,.19,9.53.33,9.5.63,19,.31,9.52.16,4.75c.07,1.59.15,3.16.23,4.74l.93,19,.87,19v.06c0,.75-.18,1.42-.47,1.51S692.88,721.32,692.83,720.62Z"/><path class="cls-8" d="M830.67,720.62,832,701.74l1.24-18.92c.1-1.58.22-3.15.31-4.73l.23-4.76.47-9.51.94-19,.44-9.53.31-9.56.62-19.12.3-9.57.14-4.78.09-4.79.33-19.17.32-19.18.06-19.19,0-19.19v-4.8l0-4.8-.09-9.59c-.18-25.59-.73-51.15-1.45-76.67-1.55-51-4.13-101.86-8-152.1S819.32,162.77,812,115c-.09-.61-.37-.92-.61-.68a2.06,2.06,0,0,0-.28,1.46v0l2.24,18.23.57,4.55.29,2.27.25,2.3,1,9.2c.65,6.14,1.35,12.25,2,18.41l1.74,18.57.88,9.27c.28,3.1.52,6.22.78,9.33l1.55,18.67c.26,3.11.52,6.22.73,9.35l.69,9.39,1.36,18.75c.24,3.12.41,6.28.61,9.42l.58,9.42,1.18,18.84c.7,12.59,1.33,25.21,2,37.81l1.65,37.91c.06,1.58.14,3.16.2,4.74l.15,4.76.31,9.5.62,19c.72,25.36,1.32,50.75,1.55,76.17l.13,9.53.07,4.77v4.76l0,19.07,0,19.08L834.18,568,834,587.08l0,4.76-.1,4.76-.21,9.53-.39,19-.2,9.53-.32,9.5-.63,19-.32,9.52-.15,4.75c-.07,1.59-.16,3.16-.23,4.74l-.93,19-.88,19v.06c0,.75.18,1.42.47,1.51S830.62,721.32,830.67,720.62Z"/></g><path class="cls-9" d="M1355.63,814.28l1.75-15,1.86-15c.15-1.25.32-2.49.45-3.74l.31-3.76.63-7.51,1.26-15,.65-7.51.4-7.52.78-15,.41-7.52.21-3.76.08-3.76.34-15.06.33-15L1365,664l-.07-15,0-3.76-.14-3.77-.26-7.52c-.45-20.07-1.65-40.12-3.09-60.14l-1.24-15-.62-7.5-.31-3.76c-.11-1.25-.27-2.49-.4-3.74l-3.3-29.93c-1.34-9.95-2.6-19.91-4-29.85l-2.36-14.87-1.16-7.44c-.39-2.48-.73-5-1.22-7.43l-2.72-14.81-1.37-7.41c-.42-2.47-.94-4.93-1.46-7.38l-3.1-14.74c-.52-2.45-1-4.92-1.56-7.37l-1.77-7.31-3.48-14.66c-1.23-4.87-2.63-9.69-3.94-14.54l-2-7.26-.5-1.82-.57-1.79-1.14-3.59-4.49-14.39v0a.94.94,0,0,1,.62-1.18.93.93,0,0,1,1.15.56c14.57,37.68,24.69,77,32.42,116.6a1050.26,1050.26,0,0,1,16,120.08c1.43,20.14,2.54,40.32,2.9,60.52l.17,7.58.09,3.78,0,3.79-.11,15.15-.11,15.15-.65,15.14-.66,15.14-.17,3.78-.28,3.78-.6,7.55-1.24,15.1-.62,7.54-.88,7.52-1.88,15-.94,7.51-.47,3.76c-.18,1.25-.41,2.49-.61,3.74l-2.48,14.93-2.58,14.91a1.07,1.07,0,0,1-2.12-.31Z"/><g class="cls-6"><path class="cls-10" d="M1262.42,2826.16l6.15-13.78,6.23-13.73c.52-1.14,1-2.28,1.55-3.43l1.42-3.49,2.84-7,5.68-13.95,2.86-7,2.63-7.06,5.24-14.12,2.63-7,1.31-3.53,1.21-3.57,4.81-14.27,4.81-14.26,4.42-14.4,4.42-14.39,1.09-3.6,1-3.63,2-7.26c5.56-19.29,10.4-38.78,15-58.32l3.3-14.69,1.64-7.35.83-3.67c.26-1.23.49-2.46.73-3.69l5.78-29.56c1.69-9.89,3.46-19.77,5.09-29.68l2.19-14.9,1.11-7.45c.36-2.48.78-5,1.05-7.45l1.82-15,.91-7.48c.34-2.48.57-5,.8-7.48l1.45-15c.23-2.5.5-5,.7-7.5l.5-7.51,1.05-15c.28-5,.38-10,.57-15.05l.27-7.53.06-1.88v-1.88l0-3.77v-15.11a.94.94,0,0,1,1.87-.06c2.66,40.31.6,80.84-3.84,121A1053.16,1053.16,0,0,1,1347,2600c-4.65,19.66-9.61,39.25-15.3,58.64l-2.1,7.28-1,3.64-1.15,3.61-4.63,14.42-4.62,14.43-5.14,14.26-5.14,14.25-1.29,3.56-1.4,3.52-2.83,7-5.68,14-2.84,7-3.09,6.91-6.28,13.79-3.14,6.88-1.56,3.45c-.55,1.13-1.14,2.25-1.7,3.38l-6.82,13.52-6.92,13.45a1.07,1.07,0,0,1-1.44.47,1.08,1.08,0,0,1-.49-1.39Z"/><path class="cls-11" d="M261.07,2826.16l-6.14-13.78-6.24-13.73c-.51-1.14-1.05-2.28-1.54-3.43l-1.42-3.49-2.85-7-5.67-13.95-2.87-7-2.62-7.06-5.24-14.12-2.63-7-1.32-3.53-1.2-3.57-4.81-14.27L211.71,2700l-4.42-14.4-4.42-14.39-1.09-3.6-1-3.63-2-7.26c-5.56-19.29-10.4-38.78-15-58.32l-3.29-14.69-1.65-7.35-.82-3.67c-.27-1.23-.49-2.46-.74-3.69l-5.77-29.56c-1.7-9.89-3.47-19.77-5.1-29.68l-2.18-14.9-1.11-7.45c-.36-2.48-.78-5-1-7.45l-1.82-15-.91-7.48c-.34-2.48-.57-5-.81-7.48l-1.44-15c-.23-2.5-.5-5-.7-7.5l-.5-7.51-1.05-15c-.28-5-.38-10-.58-15.05l-.26-7.53-.06-1.88v-1.88l0-3.77v-15.11a.94.94,0,0,0-1.88-.06c-2.66,40.31-.59,80.84,3.85,121A1050.93,1050.93,0,0,0,176.5,2600c4.65,19.66,9.61,39.25,15.3,58.64l2.09,7.28,1.05,3.64,1.15,3.61,4.62,14.42,4.63,14.43,5.14,14.26,5.14,14.25,1.29,3.56,1.39,3.52,2.83,7,5.69,14,2.84,7,3.09,6.91,6.28,13.79,3.13,6.88,1.57,3.45c.55,1.13,1.13,2.25,1.7,3.38l6.82,13.52,6.92,13.45a1.06,1.06,0,0,0,1.92-.92Z"/></g></g></g></g></svg>