<svg xmlns="http://www.w3.org/2000/svg" viewBox="0 0 853.42 1125.17"><defs><style>.cls-1{fill:#fff;}</style></defs><g id="Layer_2" data-name="Layer 2"><g id="outlined"><path class="cls-1" d="M784.54,1125.17H68.88A69,69,0,0,1,0,1056.29V459.53a69,69,0,0,1,68.88-68.88H784.54a69,69,0,0,1,68.88,68.88v596.76A69,69,0,0,1,784.54,1125.17Zm-692.7-91.84H761.58V482.49H91.84Z"/><circle class="cls-1" cx="426.71" cy="748.81" r="103.86"/><path class="cls-1" d="M690.84,436.57H599V264.13c0-95-77.29-172.29-172.29-172.29S254.42,169.13,254.42,264.13H162.58a264.13,264.13,0,1,1,528.26,0Z"/></g></g></svg>