<svg xmlns="http://www.w3.org/2000/svg" xmlns:xlink="http://www.w3.org/1999/xlink" viewBox="0 0 114.01 40.75"><defs><style>.cls-1{fill:url(#linear-gradient);}.cls-2{fill:url(#linear-gradient-2);}.cls-3{fill:url(#linear-gradient-3);}.cls-4{fill:url(#linear-gradient-4);}.cls-5{fill:url(#linear-gradient-5);}.cls-6{fill:url(#linear-gradient-6);}.cls-7{fill:url(#linear-gradient-7);}.cls-8{fill:url(#linear-gradient-8);}.cls-9{fill:url(#linear-gradient-9);}.cls-10{fill:url(#linear-gradient-10);}.cls-11{fill:url(#linear-gradient-11);}.cls-12{fill:url(#linear-gradient-12);}.cls-13{fill:url(#linear-gradient-13);}.cls-14{fill:url(#linear-gradient-14);}.cls-15{fill:url(#linear-gradient-15);}.cls-16{fill:url(#linear-gradient-16);}.cls-17{fill:url(#linear-gradient-17);}.cls-18{fill:url(#linear-gradient-18);}.cls-19{fill:url(#linear-gradient-19);}.cls-20{fill:url(#linear-gradient-20);}.cls-21{fill:url(#linear-gradient-21);}.cls-22{fill:url(#linear-gradient-22);}.cls-23{fill:url(#linear-gradient-23);}.cls-24{fill:url(#linear-gradient-24);}.cls-25{fill:url(#linear-gradient-25);}.cls-26{fill:url(#linear-gradient-26);}.cls-27{fill:url(#linear-gradient-27);}.cls-28{fill:url(#linear-gradient-28);}.cls-29{fill:url(#linear-gradient-29);}.cls-30{fill:url(#linear-gradient-30);}.cls-31{fill:url(#linear-gradient-31);}.cls-32{fill:url(#linear-gradient-32);}.cls-33{fill:url(#linear-gradient-33);}</style><linearGradient id="linear-gradient" x1="15.02" y1="41.29" x2="17.1" y2="33.51" gradientUnits="userSpaceOnUse"><stop offset="0" stop-color="#1f1f1f"/><stop offset="0.5" stop-color="#262626"/><stop offset="0.73" stop-color="#2f2f2f"/><stop offset="0.99" stop-color="#404040"/></linearGradient><linearGradient id="linear-gradient-2" x1="22.36" y1="41.48" x2="24.47" y2="33.6" xlink:href="#linear-gradient"/><linearGradient id="linear-gradient-3" x1="29.64" y1="40.73" x2="31.6" y2="33.44" xlink:href="#linear-gradient"/><linearGradient id="linear-gradient-4" x1="35.08" y1="40.76" x2="37.01" y2="33.54" xlink:href="#linear-gradient"/><linearGradient id="linear-gradient-5" x1="40.9" y1="41.36" x2="43.16" y2="32.94" xlink:href="#linear-gradient"/><linearGradient id="linear-gradient-6" x1="49.22" y1="40.75" x2="51.18" y2="33.45" xlink:href="#linear-gradient"/><linearGradient id="linear-gradient-7" x1="60.12" y1="41.22" x2="62.06" y2="34" xlink:href="#linear-gradient"/><linearGradient id="linear-gradient-8" x1="66.69" y1="41.22" x2="68.87" y2="33.09" xlink:href="#linear-gradient"/><linearGradient id="linear-gradient-9" x1="73.78" y1="41.48" x2="75.89" y2="33.6" xlink:href="#linear-gradient"/><linearGradient id="linear-gradient-10" x1="81.14" y1="40.75" x2="83.1" y2="33.45" xlink:href="#linear-gradient"/><linearGradient id="linear-gradient-11" x1="89.06" y1="40.78" x2="91.17" y2="32.9" xlink:href="#linear-gradient"/><linearGradient id="linear-gradient-12" x1="96.8" y1="41.22" x2="98.98" y2="33.09" xlink:href="#linear-gradient"/><linearGradient id="linear-gradient-13" x1="6.17" y1="18.68" x2="11.21" y2="-0.14" xlink:href="#linear-gradient"/><linearGradient id="linear-gradient-14" x1="23.04" y1="18.36" x2="28.3" y2="-1.28" xlink:href="#linear-gradient"/><linearGradient id="linear-gradient-15" x1="40.43" y1="18.68" x2="45.44" y2="0.02" xlink:href="#linear-gradient"/><linearGradient id="linear-gradient-16" x1="58.38" y1="18.39" x2="63.19" y2="0.43" xlink:href="#linear-gradient"/><linearGradient id="linear-gradient-17" x1="70.96" y1="17.5" x2="75.77" y2="-0.47" xlink:href="#linear-gradient"/><linearGradient id="linear-gradient-18" x1="85.53" y1="18.72" x2="90.99" y2="-1.69" xlink:href="#linear-gradient"/><linearGradient id="linear-gradient-19" x1="103.97" y1="18.36" x2="109.23" y2="-1.28" xlink:href="#linear-gradient"/><linearGradient id="linear-gradient-20" x1="91.28" y1="31.27" x2="91.67" y2="24.66" gradientUnits="userSpaceOnUse"><stop offset="0.01" stop-color="#c00"/><stop offset="0.25" stop-color="#dc0000"/><stop offset="0.72" stop-color="#f60000"/><stop offset="1" stop-color="red"/></linearGradient><linearGradient id="linear-gradient-21" x1="99.57" y1="31.77" x2="99.96" y2="25.16" xlink:href="#linear-gradient-20"/><linearGradient id="linear-gradient-22" x1="82.45" y1="30.75" x2="82.84" y2="24.14" xlink:href="#linear-gradient-20"/><linearGradient id="linear-gradient-23" x1="74.16" y1="30.25" x2="74.55" y2="23.64" xlink:href="#linear-gradient-20"/><linearGradient id="linear-gradient-24" x1="65.33" y1="29.73" x2="65.72" y2="23.12" xlink:href="#linear-gradient-20"/><linearGradient id="linear-gradient-25" x1="5.68" y1="26.18" x2="6.07" y2="19.57" xlink:href="#linear-gradient-20"/><linearGradient id="linear-gradient-26" x1="22.8" y1="27.19" x2="23.19" y2="20.59" xlink:href="#linear-gradient-20"/><linearGradient id="linear-gradient-27" x1="57.04" y1="29.23" x2="57.43" y2="22.62" xlink:href="#linear-gradient-20"/><linearGradient id="linear-gradient-28" x1="39.92" y1="28.21" x2="40.31" y2="21.6" xlink:href="#linear-gradient-20"/><linearGradient id="linear-gradient-29" x1="13.97" y1="26.67" x2="14.36" y2="20.07" xlink:href="#linear-gradient-20"/><linearGradient id="linear-gradient-30" x1="48.21" y1="28.71" x2="48.6" y2="22.1" xlink:href="#linear-gradient-20"/><linearGradient id="linear-gradient-31" x1="31.09" y1="27.69" x2="31.48" y2="21.08" xlink:href="#linear-gradient-20"/><linearGradient id="linear-gradient-32" x1="56.77" y1="29.2" x2="57.16" y2="22.63" xlink:href="#linear-gradient-20"/><linearGradient id="linear-gradient-33" x1="56.77" y1="29.2" x2="57.16" y2="22.62" xlink:href="#linear-gradient-20"/></defs><g id="Layer_2" data-name="Layer 2"><g id="display"><g id="Modern"><path class="cls-1" d="M12.78,40.69l1.51-7.1h2.9a1.48,1.48,0,0,1,.68.16,1.74,1.74,0,0,1,.51.42,1.93,1.93,0,0,1,.32.6,2.09,2.09,0,0,1,.11.7,2.39,2.39,0,0,1-.15.83,2.74,2.74,0,0,1-1,1.32,2,2,0,0,1-.75.35L18,40.69h-1l-1-2.55H14.22l-.54,2.55Zm3.62-3.35a1.16,1.16,0,0,0,.57-.15,1.53,1.53,0,0,0,.47-.41,1.95,1.95,0,0,0,.44-1.21,1.33,1.33,0,0,0-.07-.45,1.23,1.23,0,0,0-.19-.38,1,1,0,0,0-.28-.25.76.76,0,0,0-.37-.1H15l-.63,3Z"/><path class="cls-2" d="M23.69,33.59h.77l1.23,7.1h-1l-.34-2.08H21.61L20.4,40.69h-1Zm.66,4.32-.49-3.28-1.93,3.28Z"/><path class="cls-3" d="M30,40.75A2.14,2.14,0,0,1,29,40.5a2.43,2.43,0,0,1-.78-.68,3.09,3.09,0,0,1-.48-1,3.7,3.7,0,0,1,.14-2.59A4.5,4.5,0,0,1,30,33.93a3.55,3.55,0,0,1,1.62-.38,2.66,2.66,0,0,1,.82.12,2.13,2.13,0,0,1,.64.32,1.78,1.78,0,0,1,.46.49,2.29,2.29,0,0,1,.27.62l-.81.46a1.63,1.63,0,0,0-.24-.57,1.45,1.45,0,0,0-.37-.37,1.63,1.63,0,0,0-.47-.2,2.22,2.22,0,0,0-.51-.06,2.43,2.43,0,0,0-1.19.31,3.4,3.4,0,0,0-.93.8,3.64,3.64,0,0,0-.6,1.07,3.26,3.26,0,0,0-.22,1.16,3,3,0,0,0,.12.86,2.2,2.2,0,0,0,.35.72,1.84,1.84,0,0,0,.56.48,1.54,1.54,0,0,0,.75.18,2.26,2.26,0,0,0,.56-.07,2.3,2.3,0,0,0,.58-.22,2.78,2.78,0,0,0,.55-.39,2.69,2.69,0,0,0,.48-.57l.66.41a2.73,2.73,0,0,1-.6.71,4,4,0,0,1-.77.51,3.73,3.73,0,0,1-.84.32A3.11,3.11,0,0,1,30,40.75Z"/><path class="cls-4" d="M36.35,33.6h.9l-1.51,7.09h-.9Z"/><path class="cls-5" d="M39.93,33.59h.7l2.94,5.53,1.17-5.52h.9l-1.51,7.09h-.75l-2.91-5.42-1.15,5.42h-.9Z"/><path class="cls-6" d="M51.77,39.74a3.89,3.89,0,0,1-1.1.76,2.85,2.85,0,0,1-1.14.24,2.2,2.2,0,0,1-1-.24,2.46,2.46,0,0,1-.78-.66,3.29,3.29,0,0,1-.49-1,3.79,3.79,0,0,1,.17-2.69,4.87,4.87,0,0,1,.89-1.35,4.36,4.36,0,0,1,1.27-1,3.31,3.31,0,0,1,1.5-.36,2.46,2.46,0,0,1,1.53.43,2.08,2.08,0,0,1,.73,1.12l-.79.48a1.56,1.56,0,0,0-.6-.92,1.81,1.81,0,0,0-1.06-.3,2.27,2.27,0,0,0-1.12.3,3.23,3.23,0,0,0-.92.77,3.88,3.88,0,0,0-.63,1.08A3.47,3.47,0,0,0,48,37.72a2.63,2.63,0,0,0,.13.86,2,2,0,0,0,.36.7,1.66,1.66,0,0,0,.57.48,1.52,1.52,0,0,0,.74.17,2.47,2.47,0,0,0,1.09-.27A4.28,4.28,0,0,0,52,38.8l.21-1H50.73l.15-.68h2.2l-.75,3.54h-.76Z"/><path class="cls-7" d="M59.65,33.59h.9l-1.34,6.3h3.73l-.17.8H58.14Z"/><path class="cls-8" d="M66.24,33.59h4.5l-.17.8H67l-.49,2.3h3.13l-.16.75H66.32l-.52,2.45h3.69l-.17.8H64.73Z"/><path class="cls-9" d="M75.11,33.59h.77l1.23,7.1h-1l-.34-2.08H73l-1.21,2.08h-1Zm.66,4.32-.49-3.28-1.93,3.28Z"/><path class="cls-10" d="M83.69,39.74a4,4,0,0,1-1.1.76,2.85,2.85,0,0,1-1.14.24,2.2,2.2,0,0,1-1-.24,2.26,2.26,0,0,1-.78-.66,3.06,3.06,0,0,1-.49-1,3.79,3.79,0,0,1,.17-2.69,4.87,4.87,0,0,1,.89-1.35,4.36,4.36,0,0,1,1.27-1,3.31,3.31,0,0,1,1.5-.36,2.46,2.46,0,0,1,1.53.43,2.14,2.14,0,0,1,.73,1.12l-.79.48a1.56,1.56,0,0,0-.6-.92,1.84,1.84,0,0,0-1.06-.3,2.24,2.24,0,0,0-1.12.3,3.23,3.23,0,0,0-.92.77,3.65,3.65,0,0,0-.63,1.08,3.47,3.47,0,0,0-.23,1.22,2.63,2.63,0,0,0,.13.86,2,2,0,0,0,.36.7,1.66,1.66,0,0,0,.57.48,1.52,1.52,0,0,0,.74.17,2.47,2.47,0,0,0,1.09-.27,4.28,4.28,0,0,0,1.11-.86l.21-1H82.65l.15-.68H85l-.75,3.54h-.76Z"/><path class="cls-11" d="M89.37,40.74a2.76,2.76,0,0,1-1.06-.18,1.74,1.74,0,0,1-.7-.51,1.92,1.92,0,0,1-.39-.75,3.38,3.38,0,0,1-.12-.93,5.89,5.89,0,0,1,.14-1.19L88,33.59h.9l-.76,3.59a4.82,4.82,0,0,0-.12,1,2.8,2.8,0,0,0,.08.67,1.46,1.46,0,0,0,.25.55,1.12,1.12,0,0,0,.47.36,1.67,1.67,0,0,0,.71.13,2,2,0,0,0,1-.24,2.34,2.34,0,0,0,.74-.62,3.32,3.32,0,0,0,.51-.88,5.34,5.34,0,0,0,.31-1l.76-3.59h.9L93,37.18a6.85,6.85,0,0,1-.44,1.37,4.28,4.28,0,0,1-.75,1.13,3.35,3.35,0,0,1-1,.78A3.26,3.26,0,0,1,89.37,40.74Z"/><path class="cls-12" d="M96.35,33.59h4.5l-.17.8h-3.6l-.49,2.3h3.13l-.16.75H96.43l-.52,2.45H99.6l-.17.8H94.84Z"/><path class="cls-13" d="M0,17,3.64,0h7.48A4,4,0,0,1,13,.42a4.2,4.2,0,0,1,1.36,1.1,5.06,5.06,0,0,1,.85,1.57,5.44,5.44,0,0,1,.3,1.83,5.9,5.9,0,0,1-.24,1.66,6.42,6.42,0,0,1-.68,1.6,7.74,7.74,0,0,1-2.46,2.59l2,6.26H8.86L7.21,11.8H5.79L4.69,17ZM9.27,7.72a.77.77,0,0,0,.43-.16,2.12,2.12,0,0,0,.46-.48,3.27,3.27,0,0,0,.36-.75,2.83,2.83,0,0,0,.14-.93,1.76,1.76,0,0,0-.22-1,.64.64,0,0,0-.52-.35H7.45L6.68,7.72Z"/><path class="cls-14" d="M21.7,0H33.07L32.2,4.08H25.51L25,6.48h5.71l-.82,3.79H24.19L23.62,13h6.9L29.66,17H18.08Z"/><path class="cls-15" d="M37.89,0h6.28A7.52,7.52,0,0,1,47.1.52,5.6,5.6,0,0,1,50.4,4a8.47,8.47,0,0,1,.39,2.6A10.9,10.9,0,0,1,50,10.81a9.86,9.86,0,0,1-2.16,3.28,9.94,9.94,0,0,1-3.25,2.16,10.37,10.37,0,0,1-4.05.78H34.27Zm3.52,13a3.84,3.84,0,0,0,1.85-.45,4.62,4.62,0,0,0,1.44-1.24,6.15,6.15,0,0,0,.94-1.8A6.89,6.89,0,0,0,46,7.32,3.77,3.77,0,0,0,45.29,5a2.34,2.34,0,0,0-2-.89H41.7L39.81,13Z"/><path class="cls-16" d="M56.91,0h4.68L58.83,13H66L65.14,17H53.29Z"/><path class="cls-17" d="M72.84,0h4.67L73.89,17H69.21Z"/><path class="cls-18" d="M82.84,0h3.65L90.8,8.66,92.63,0H97.3L93.68,17H90L85.67,8.66,83.89,17H79.22Z"/><path class="cls-19" d="M102.63,0H114l-.87,4.08h-6.69l-.5,2.4h5.71l-.82,3.79h-5.71L104.55,13h6.9L110.59,17H99Z"/><polygon class="cls-20" points="96.19 23.22 87.6 23.22 87.25 24.55 95.84 24.55 96.19 23.22"/><polygon class="cls-21" points="104.08 25.88 104.43 24.55 95.84 24.55 95.49 25.88 104.08 25.88"/><polygon class="cls-22" points="86.9 25.88 87.25 24.55 78.66 24.55 78.31 25.88 86.9 25.88"/><polygon class="cls-23" points="79.01 23.22 70.42 23.22 70.07 24.55 78.66 24.55 79.01 23.22"/><polygon class="cls-24" points="69.72 25.88 70.07 24.55 61.48 24.55 61.13 25.88 69.72 25.88"/><polygon class="cls-25" points="1.7 23.22 1.34 24.55 9.94 24.55 10.29 23.22 1.7 23.22"/><polygon class="cls-26" points="27.47 23.22 18.88 23.22 18.52 24.55 27.12 24.55 27.47 23.22"/><polygon class="cls-27" points="61.83 23.22 53.24 23.22 52.89 24.55 61.48 24.55 61.83 23.22"/><polygon class="cls-28" points="44.65 23.22 36.06 23.22 35.71 24.55 44.3 24.55 44.65 23.22"/><polygon class="cls-29" points="18.52 24.55 9.94 24.55 9.58 25.88 18.17 25.88 18.52 24.55"/><polygon class="cls-30" points="52.53 25.88 52.89 24.55 44.3 24.55 43.94 25.88 52.53 25.88"/><polygon class="cls-31" points="35.35 25.88 35.71 24.55 27.12 24.55 26.76 25.88 35.35 25.88"/><polygon class="cls-32" points="104.78 23.22 104.43 24.55 113.02 24.55 112.67 25.88 104.08 25.88 103.72 27.22 95.14 27.22 95.49 25.88 86.9 25.88 86.54 27.22 77.95 27.22 78.31 25.88 69.72 25.88 69.36 27.22 60.77 27.22 61.13 25.88 52.53 25.88 52.18 27.22 43.59 27.22 43.94 25.88 35.35 25.88 35 27.22 26.41 27.22 26.76 25.88 18.17 25.88 17.82 27.22 9.23 27.22 9.58 25.88 0.99 25.88 0.64 27.22 112.31 27.22 113.37 23.22 104.78 23.22"/><path class="cls-33" d="M113.37,23.22l-1.05,4H.64l1.06-4H113.37m.64-.5H1.32l-.1.37-1,4L0,27.72H112.69l.1-.37,1.06-4,.16-.63Z"/></g></g></g></svg>