<svg xmlns="http://www.w3.org/2000/svg" viewBox="0 0 1743.06 1743.06"><defs><style>.cls-1{fill:#fff;}</style></defs><g id="Layer_2" data-name="Layer 2"><g id="outlined_version" data-name="outlined version"><path class="cls-1" d="M1026.92,1743.06H716.15a100.11,100.11,0,0,1-100-100v-155L506.56,1597.67a100.11,100.11,0,0,1-141.42,0L145.39,1377.93a100.12,100.12,0,0,1,0-141.43L255,1126.92H100a100.11,100.11,0,0,1-100-100V716.15a100.11,100.11,0,0,1,100-100H255L145.39,506.56a100.11,100.11,0,0,1,0-141.42L365.14,145.39a100.14,100.14,0,0,1,141.42,0L616.15,255h0V100a100.11,100.11,0,0,1,100-100h310.77a100.11,100.11,0,0,1,100,100V255L1236.5,145.39a100.15,100.15,0,0,1,141.43,0l219.74,219.75a100.11,100.11,0,0,1,0,141.42L1488.08,616.15h155a100.11,100.11,0,0,1,100,100v310.77a100.11,100.11,0,0,1-100,100h-155l109.59,109.58a100.12,100.12,0,0,1,0,141.43l-219.74,219.74a100.13,100.13,0,0,1-141.43,0l-109.58-109.59h0v155A100.11,100.11,0,0,1,1026.92,1743.06Zm-310.68-100h310.59l.09-.08v-154.9a100,100,0,0,1,170.71-70.71l109.52,109.53h.13l219.62-219.62v-.13l-109.53-109.52a100,100,0,0,1,70.71-170.71H1643l.08-.09V716.24l-.08-.09h-154.9a100,100,0,0,1-70.71-170.71L1526.9,435.91v-.12L1307.28,216.17h-.13L1197.63,325.69A100,100,0,0,1,1026.92,255V100.09l-.09-.09H716.24l-.09.09V255a100,100,0,0,1-170.71,70.71L435.91,216.17h-.12L216.17,435.79a.24.24,0,0,0,0,.12L325.69,545.44A100,100,0,0,1,255,716.15H100.09l-.09.09v310.59l.09.09H255a100,100,0,0,1,70.71,170.71L216.17,1307.15a.29.29,0,0,0,0,.13L435.79,1526.9h.12l109.53-109.53a100,100,0,0,1,170.71,70.71V1643Zm410.32-155.29Zm-510,0Zm510.44-.16ZM1487.61,1127Zm.16-.39Zm0-510Zm-1232.47,0Zm1232.31-.39ZM1127,255.46Zm-.39-.16Zm-510,0Z"/><path class="cls-1" d="M871.53,1287.29a414.62,414.62,0,1,1,161.85-32.7A413.08,413.08,0,0,1,871.53,1287.29Zm0-731.51a315.76,315.76,0,1,0,223.27,92.48A313.68,313.68,0,0,0,871.53,555.78Z"/></g></g></svg>